<?xml version="1.0" standalone="no"?>
<!DOCTYPE svg PUBLIC "-//W3C//DTD SVG 20010904//EN"
 "http://www.w3.org/TR/2001/REC-SVG-20010904/DTD/svg10.dtd">
<svg version="1.0" xmlns="http://www.w3.org/2000/svg"
 width="5544.000000pt" height="5544.000000pt" viewBox="0 0 5544.000000 5544.000000"
 preserveAspectRatio="xMidYMid meet">

<g transform="translate(0.000000,5544.000000) scale(0.100000,-0.100000)"
fill="#000000" stroke="none">
<path d="M28070 43519 c-1655 -135 -3130 -1006 -4045 -2389 -741 -1120 -1028
-2476 -810 -3820 143 -878 518 -1726 1074 -2430 253 -321 570 -638 891 -891
1292 -1020 2990 -1385 4597 -989 1364 337 2547 1206 3280 2410 439 723 695
1521 763 2384 13 167 13 614 0 787 -55 708 -231 1355 -541 1978 -258 520 -560
946 -959 1354 -449 460 -893 784 -1461 1066 -623 310 -1270 486 -1978 541
-157 12 -658 11 -811 -1z"/>
<path d="M27970 27304 c-194 -11 -383 -27 -525 -45 -998 -126 -1891 -518
-2670 -1170 -876 -735 -1430 -1649 -1645 -2719 -78 -388 -106 -727 -97 -1180
12 -629 84 -1101 237 -1560 168 -506 421 -939 793 -1359 343 -386 946 -854
1625 -1260 304 -181 505 -289 902 -483 647 -316 831 -419 1101 -614 584 -420
873 -836 960 -1379 20 -120 17 -416 -5 -560 -108 -715 -497 -1441 -1150 -2147
-781 -844 -1875 -1659 -3391 -2525 -363 -208 -921 -509 -1097 -593 -89 -42
-142 -89 -154 -135 -5 -19 33 -86 187 -337 236 -383 398 -638 407 -638 78 3
1548 546 2176 805 1054 434 1864 901 2859 1647 975 731 1869 1578 2612 2473
1514 1825 2372 3830 2600 6080 49 483 70 1279 46 1730 -77 1428 -431 2597
-1088 3600 -231 351 -460 633 -758 931 -409 409 -784 683 -1264 923 -572 287
-1151 444 -1851 501 -130 11 -696 20 -810 14z"/>
</g>
</svg>
