<svg xmlns="http://www.w3.org/2000/svg" xmlns:xlink="http://www.w3.org/1999/xlink" width="1080" zoomAndPan="magnify" viewBox="0 0 810 809.999993" height="1080" preserveAspectRatio="xMidYMid meet" version="1.0"><path fill="#000000" d="M 349.730469 171.554688 L 386.390625 62.667969 C 395.097656 36.796875 431.847656 37.265625 439.898438 63.347656 L 473.78125 173.136719 C 479.183594 190.648438 499.636719 198.390625 515.285156 188.839844 L 613.359375 128.988281 C 636.65625 114.773438 664.511719 138.75 653.910156 163.902344 L 609.285156 269.785156 C 602.167969 286.671875 612.859375 305.757812 630.988281 308.492188 L 744.589844 325.691406 C 771.578125 329.773438 777.5 366.042969 753.207031 378.503906 L 650.976562 430.933594 C 634.664062 439.300781 630.597656 460.78125 642.714844 474.535156 L 718.683594 560.726562 C 736.730469 581.203125 717.957031 612.792969 691.347656 606.726562 L 579.332031 581.171875 C 561.464844 577.097656 544.527344 590.941406 544.980469 609.261719 L 547.773438 724.121094 C 548.4375 751.410156 513.746094 763.535156 497.261719 741.777344 L 427.878906 650.199219 C 416.804688 635.589844 394.945312 635.3125 383.507812 649.632812 L 311.804688 739.421875 C 294.773438 760.75 260.402344 747.742188 261.765625 720.484375 L 267.472656 605.730469 C 268.390625 587.425781 251.816406 573.152344 233.84375 576.773438 L 121.214844 599.46875 C 94.457031 604.863281 76.484375 572.804688 95.050781 552.789062 L 173.191406 468.558594 C 185.65625 455.121094 182.132812 433.535156 166.039062 424.761719 L 65.167969 369.753906 C 41.210938 356.6875 48.046875 320.578125 75.132812 317.175781 L 189.132812 302.878906 C 207.316406 300.597656 218.492188 281.796875 211.8125 264.730469 L 169.902344 157.753906 C 159.945312 132.34375 188.394531 109.078125 211.324219 123.878906 L 307.84375 186.199219 C 323.234375 196.148438 343.882812 188.929688 349.730469 171.554688 Z M 349.730469 171.554688 " fill-opacity="1" fill-rule="nonzero"/></svg>